<?xml version="1.0" encoding="UTF-8"?>
<svg version="1.1" xmlns="http://www.w3.org/2000/svg" width="1024" height="400">
<path d="M0 0 C1.29679688 -0.01611328 2.59359375 -0.03222656 3.9296875 -0.04882812 C5.16976562 -0.04947266 6.40984375 -0.05011719 7.6875 -0.05078125 C9.39486328 -0.05525269 9.39486328 -0.05525269 11.13671875 -0.05981445 C14 0.3125 14 0.3125 15.71826172 1.39111328 C17.59740255 4.20803487 18.6904997 7.24949835 19.8203125 10.41796875 C20.08055206 11.12650497 20.34079163 11.8350412 20.60891724 12.56504822 C21.45517772 14.87401277 22.28996981 17.18695328 23.125 19.5 C23.70448949 21.08545812 24.28489788 22.67058068 24.86621094 24.25537109 C26.03117916 27.43346481 27.19248021 30.61285636 28.35058594 33.79345703 C30.61986327 40.01956237 32.92917362 46.23042521 35.25 52.4375 C35.62012207 53.43676514 35.99024414 54.43603027 36.37158203 55.46557617 C36.70786621 56.36638916 37.04415039 57.26720215 37.390625 58.1953125 C37.67969727 58.97277832 37.96876953 59.75024414 38.26660156 60.55126953 C38.86576796 62.30525131 38.86576796 62.30525131 40 63.3125 C41.04339091 60.18232728 41.13674598 57.9646137 41.15771484 54.67944336 C41.17310806 52.9476609 41.17310806 52.9476609 41.18881226 51.18089294 C41.19611359 49.93397171 41.20341492 48.68705048 41.2109375 47.40234375 C41.2389922 44.77798841 41.26765656 42.15363952 41.296875 39.52929688 C41.33940598 35.3791843 41.37619053 31.22911314 41.40136719 27.07885742 C41.42626309 23.08230257 41.47469803 19.08618071 41.5234375 15.08984375 C41.52669037 13.84089828 41.52994324 12.59195282 41.53329468 11.30516052 C41.54986115 10.15379105 41.56642761 9.00242157 41.58349609 7.81616211 C41.59158295 6.79928818 41.5996698 5.78241425 41.60800171 4.73472595 C41.73736115 3.93539139 41.86672058 3.13605682 42 2.3125 C45.40557452 0.04211699 46.65719174 0.05578442 50.65625 0.046875 C51.76097656 0.04429688 52.86570312 0.04171875 54.00390625 0.0390625 C55.15761719 0.04679687 56.31132813 0.05453125 57.5 0.0625 C58.65371094 0.05476563 59.80742188 0.04703125 60.99609375 0.0390625 C62.10082031 0.04164062 63.20554687 0.04421875 64.34375 0.046875 C65.86258789 0.05025879 65.86258789 0.05025879 67.41210938 0.05371094 C70 0.3125 70 0.3125 73 2.3125 C73.31737679 4.81691153 73.43742438 7.08002338 73.43237305 9.58959961 C73.44255054 10.34478284 73.45272802 11.09996607 73.46321392 11.87803364 C73.49361128 14.40704264 73.50264587 16.93567507 73.51171875 19.46484375 C73.52883374 21.25340999 73.54722041 23.04196445 73.56680298 24.83050537 C73.61546893 29.64098227 73.64530346 34.45140041 73.67056656 39.26205063 C73.69306391 43.23176664 73.72461038 47.20138855 73.75625515 51.17104053 C73.82761847 60.12374038 73.88520563 69.07644031 73.93261719 78.02929688 C73.97430444 85.83893455 74.03763547 93.64798012 74.12420559 101.45724392 C74.19337059 107.71142741 74.24378065 113.96556666 74.28408813 120.22000122 C74.30297413 122.73265028 74.32814476 125.24526023 74.35971069 127.75778198 C74.4007431 131.1967944 74.41680316 134.63499543 74.42578125 138.07421875 C74.44323395 139.06798523 74.46068665 140.06175171 74.47866821 141.08563232 C74.45804439 147.57656574 74.45804439 147.57656574 72.37182617 150.9284668 C67.43476137 153.80939529 61.53260755 152.67080273 56 152.4375 C54.71609375 152.42203125 53.4321875 152.4065625 52.109375 152.390625 C50.26085937 152.32488281 50.26085937 152.32488281 48.375 152.2578125 C47.24835938 152.22187988 46.12171875 152.18594727 44.9609375 152.14892578 C42 151.3125 42 151.3125 39.82006836 148.796875 C37.7406696 144.81603273 36.06791628 140.82215983 34.50390625 136.6171875 C34.18848373 135.78849152 33.87306122 134.95979553 33.54808044 134.10598755 C32.54583309 131.46910091 31.55373668 128.82854299 30.5625 126.1875 C25.47712366 107.79710388 25.47712366 107.79710388 16 93.3125 C15.98786972 94.37698868 15.98786972 94.37698868 15.97549438 95.46298218 C15.89762497 102.14364337 15.81035789 108.8241075 15.71247292 115.50450706 C15.66247962 118.93916136 15.61615022 122.37378445 15.578125 125.80859375 C15.5342726 129.75538688 15.47460852 133.70186366 15.4140625 137.6484375 C15.39673569 139.50316177 15.39673569 139.50316177 15.37905884 141.39535522 C15.35918915 142.53638702 15.33931946 143.67741882 15.31884766 144.85302734 C15.30552399 145.861185 15.29220032 146.86934265 15.2784729 147.90805054 C15 150.3125 15 150.3125 13 152.3125 C10.34204102 152.57128906 10.34204102 152.57128906 7.00390625 152.578125 C5.20663086 152.58199219 5.20663086 152.58199219 3.37304688 152.5859375 C2.11556641 152.57820312 0.85808594 152.57046875 -0.4375 152.5625 C-2.31791992 152.57410156 -2.31791992 152.57410156 -4.23632812 152.5859375 C-5.43580078 152.58335937 -6.63527344 152.58078125 -7.87109375 152.578125 C-8.97380615 152.57586914 -10.07651855 152.57361328 -11.21264648 152.57128906 C-14 152.3125 -14 152.3125 -17 150.3125 C-17.37752342 147.76062012 -17.37752342 147.76062012 -17.38095093 144.46679688 C-17.3894104 143.22164307 -17.39786987 141.97648926 -17.40658569 140.69360352 C-17.40075225 139.30615105 -17.39460771 137.91869986 -17.38818359 136.53125 C-17.39224683 135.07608648 -17.39758731 133.62092604 -17.40411377 132.16577148 C-17.41782286 128.20712766 -17.41247404 124.24871764 -17.40297651 120.29006958 C-17.39539843 116.15365961 -17.40242035 112.0172701 -17.40713501 107.88085938 C-17.41259799 100.93355706 -17.40538679 93.98635032 -17.39111328 87.0390625 C-17.37478569 78.99898367 -17.38007382 70.95913305 -17.3965925 62.91905975 C-17.41019198 56.02475781 -17.41213458 49.1305247 -17.40427649 42.23621368 C-17.39959148 38.11471311 -17.39899773 33.99331991 -17.40888596 29.87182617 C-17.41753107 25.99762248 -17.41157909 22.12371393 -17.39420319 18.24954224 C-17.39022513 16.82488496 -17.39139483 15.40020298 -17.39799118 13.97555542 C-17.40614402 12.03644681 -17.39412488 10.09728412 -17.38095093 8.15820312 C-17.37981985 7.07124146 -17.37868877 5.98427979 -17.37752342 4.86437988 C-17.25294069 4.02225952 -17.12835796 3.18013916 -17 2.3125 C-11.93113716 -1.06674189 -5.95118586 -0.01478923 0 0 Z " fill="#FF0000" transform="translate(759,38.6875)"/>
<path d="M0 0 C1.29547256 -0.02251831 2.59094513 -0.04503662 3.92567444 -0.0682373 C9.87998589 -0.14386078 15.83440351 -0.19698714 21.7890625 -0.23535156 C24.92927124 -0.25757365 28.06828142 -0.2992526 31.20800781 -0.35839844 C35.00241462 -0.42973804 38.7956991 -0.46622086 42.59074211 -0.47846985 C44.03284283 -0.48883392 45.47491215 -0.51117187 46.91662788 -0.54606628 C59.60126753 -0.83703129 59.60126753 -0.83703129 64.66552734 3.57421875 C65.77756403 4.77677434 66.87481472 5.99321832 67.95483398 7.22460938 C69.20671326 8.28898012 70.47521596 9.33446515 71.76733398 10.34960938 C75.42516451 13.28629991 77.70408436 16.4068773 78.35597229 21.13253784 C78.36740768 22.20174469 78.37884308 23.27095154 78.390625 24.37255859 C78.40976456 25.59087372 78.42890411 26.80918884 78.44862366 28.06442261 C78.45196213 29.37283112 78.4553006 30.68123962 78.45874023 32.02929688 C78.46839043 33.39543975 78.47848358 34.76157957 78.48899841 36.12771606 C78.50692773 38.98739809 78.51252281 41.84680873 78.51074219 44.70654297 C78.51043751 48.35753871 78.55138484 52.0067814 78.60305882 55.65736198 C78.63654131 58.47828034 78.64249622 61.2987802 78.64091301 64.11987686 C78.64613913 66.11568437 78.67858372 68.11136122 78.71156311 70.10690308 C78.63529378 80.22630014 78.63529378 80.22630014 75.05541992 84.49023438 C72.1527008 87.26920324 68.96292419 89.49940082 65.59155273 91.66992188 C63.30815147 93.83888059 63.1973739 95.07689195 62.95483398 98.22460938 C63.77363704 100.9846382 64.66075075 103.51407367 65.74389648 106.16601562 C66.04419769 106.92953842 66.3444989 107.69306122 66.65390015 108.47972107 C67.61730046 110.92043781 68.59833622 113.35362193 69.57983398 115.78710938 C70.21770169 117.39668057 70.85443192 119.00670302 71.48999023 120.6171875 C74.57623191 128.40703873 77.71504905 136.14446249 81.21801758 143.75952148 C82.08488455 146.65970564 81.83368063 148.35506563 80.95483398 151.22460938 C78.29925687 153.88018648 71.11807107 152.67432047 67.33666992 152.73950195 C65.92215068 152.77109051 64.50789428 152.81879578 63.09448242 152.88305664 C51.59484715 153.3987897 51.59484715 153.3987897 48.07763672 150.88061523 C46.63129805 148.7235338 45.81718791 146.67636843 44.95483398 144.22460938 C44.52992676 143.22099365 44.10501953 142.21737793 43.66723633 141.18334961 C42.21077636 137.7011418 40.85728539 134.19068729 39.51733398 130.66210938 C39.03334201 129.40807916 38.5483921 128.15441825 38.0625 126.90112305 C36.68547139 123.3452682 35.31947954 119.78523628 33.95483398 116.22460938 C32.77653465 113.15841509 31.58978051 110.09586771 30.39233398 107.03710938 C29.95791992 105.90917969 29.52350586 104.78125 29.07592773 103.61914062 C28.1909533 101.0841627 28.1909533 101.0841627 25.95483398 100.22460938 C25.94674713 100.84657196 25.93866028 101.46853455 25.93032837 102.10934448 C25.84446892 108.56545953 25.74497422 115.02126092 25.63745117 121.47705078 C25.59909752 123.88845566 25.56425608 126.299919 25.53295898 128.71142578 C25.48744695 132.17176251 25.42942994 135.63169446 25.36889648 139.09179688 C25.35734528 140.17516327 25.34579407 141.25852966 25.33389282 142.37472534 C25.31402313 143.37561188 25.29415344 144.37649841 25.27368164 145.40771484 C25.26035797 146.29151825 25.2470343 147.17532166 25.23330688 148.08590698 C24.95483398 150.22460938 24.95483398 150.22460938 22.95483398 152.22460938 C20.08154297 152.4675293 20.08154297 152.4675293 16.45092773 152.45507812 C15.15348633 152.45314453 13.85604492 152.45121094 12.51928711 152.44921875 C11.84260986 152.44301514 11.16593262 152.43681152 10.46875 152.43041992 C8.39692928 152.4121499 6.32555502 152.40991033 4.25366211 152.41015625 C-5.90508344 152.36469195 -5.90508344 152.36469195 -7.04516602 151.22460938 C-7.14286803 149.79747317 -7.17148297 148.36553508 -7.17214966 146.93505859 C-7.17496948 146.00957214 -7.17778931 145.08408569 -7.18069458 144.1305542 C-7.17765823 142.59543182 -7.17765823 142.59543182 -7.17456055 141.02929688 C-7.17631287 139.95786438 -7.17806519 138.88643188 -7.17987061 137.78253174 C-7.18429155 134.2215414 -7.18135027 130.66060026 -7.17797852 127.09960938 C-7.17865148 124.63720693 -7.17962145 122.17480456 -7.18087769 119.71240234 C-7.18235499 114.5439389 -7.18019906 109.3754927 -7.17553711 104.20703125 C-7.16983981 97.5652021 -7.17311864 90.92341336 -7.17910957 84.28158569 C-7.18271431 79.19457695 -7.181577 74.10757787 -7.17898178 69.02056885 C-7.17831227 66.57082108 -7.17914177 64.12107245 -7.18146133 61.67132568 C-7.18398643 58.25416727 -7.18014927 54.83707531 -7.17456055 51.41992188 C-7.17658478 50.39650696 -7.17860901 49.37309204 -7.18069458 48.31866455 C-7.17787476 47.3931781 -7.17505493 46.46769165 -7.17214966 45.51416016 C-7.17177263 44.70520294 -7.17139561 43.89624573 -7.17100716 43.06277466 C-7.04516602 41.22460938 -7.04516602 41.22460938 -6.04516602 40.22460938 C-1.92939013 40.00671751 2.18948321 40.03881749 6.31054688 40.03930664 C8.38033662 40.03712204 10.44959191 40.01897446 12.51928711 40 C14.46544922 39.99709961 14.46544922 39.99709961 16.45092773 39.99414062 C17.64903076 39.99003174 18.84713379 39.98592285 20.08154297 39.98168945 C22.95483398 40.22460938 22.95483398 40.22460938 24.95483398 42.22460938 C25.2578125 44.25585938 25.2578125 44.25585938 25.33374023 46.72460938 C25.36790039 47.61148438 25.40206055 48.49835938 25.43725586 49.41210938 C25.46368164 50.34023438 25.49010742 51.26835937 25.51733398 52.22460938 C25.57717631 54.05807623 25.64079517 55.89142491 25.70874023 57.72460938 C25.73266846 58.53929687 25.75659668 59.35398437 25.78125 60.19335938 C25.83461391 62.29202946 25.83461391 62.29202946 26.95483398 64.22460938 C30.03989487 65.252963 32.22426119 65.35829371 35.45483398 65.34960938 C36.41389648 65.3521875 37.37295898 65.35476563 38.36108398 65.35742188 C41.07054551 65.3345391 41.07054551 65.3345391 43.95483398 64.22460938 C45.41582243 61.30263248 45.066183 58.72567462 45.05249023 55.46679688 C45.05107529 54.80374542 45.04966034 54.14069397 45.04820251 53.45755005 C45.04260152 51.33819075 45.03004899 49.21893679 45.01733398 47.09960938 C45.01231911 45.66341298 45.00775618 44.22721494 45.00366211 42.79101562 C44.99263181 39.26884593 44.97536657 35.74673793 44.95483398 32.22460938 C44.31812271 32.21430191 43.68141144 32.20399445 43.02540588 32.19337463 C36.423566 32.08554607 29.8218692 31.97092977 23.22021484 31.85229492 C20.7534483 31.80886994 18.28665021 31.76720066 15.81982422 31.72729492 C12.28269932 31.66977492 8.74573433 31.60602863 5.20874023 31.54101562 C3.54313805 31.51594688 3.54313805 31.51594688 1.84388733 31.4903717 C0.3124131 31.46045387 0.3124131 31.46045387 -1.25 31.42993164 C-2.60568336 31.40661522 -2.60568336 31.40661522 -3.98875427 31.38282776 C-6.04516602 31.22460938 -6.04516602 31.22460938 -7.04516602 30.22460938 C-7.14519891 28.09107764 -7.17597649 25.95423396 -7.17797852 23.81835938 C-7.17926758 22.51769531 -7.18055664 21.21703125 -7.18188477 19.87695312 C-7.17979004 19.19616699 -7.17769531 18.51538086 -7.17553711 17.81396484 C-7.17018842 15.73332423 -7.17548282 13.65289949 -7.18188477 11.57226562 C-7.1805957 10.27160156 -7.17930664 8.9709375 -7.17797852 7.63085938 C-7.17685059 6.42751953 -7.17572266 5.22417969 -7.17456055 3.984375 C-6.94006649 -1.01698494 -4.45558253 0.07344571 0 0 Z " fill="#FF0000" transform="translate(386.045166015625,208.775390625)"/>
<path d="M0 0 C1.28901718 -0.025746 2.57803436 -0.051492 3.90611267 -0.07801819 C9.84083313 -0.16761295 15.77573669 -0.2281757 21.7109375 -0.27441406 C24.83764216 -0.30105774 27.96280115 -0.34963092 31.08886719 -0.41796875 C34.87035668 -0.5004213 38.65038627 -0.54267612 42.43272591 -0.55747795 C43.86763928 -0.56965017 45.30251042 -0.59550763 46.73690605 -0.6359272 C55.72389776 -0.87627258 61.24907503 -0.08381201 67.94911194 6.14686584 C68.62147385 6.83775803 69.29383575 7.52865021 69.98657227 8.24047852 C71.31983313 9.51138788 72.65315329 10.78223504 73.98657227 12.05297852 C77.39155703 15.49888857 79.22918766 17.9583389 79.28764343 22.89979553 C79.3033992 23.85709564 79.31915497 24.81439575 79.33538818 25.80070496 C79.34233704 26.84954361 79.34928589 27.89838226 79.35644531 28.97900391 C79.371194 30.08503967 79.38594269 31.19107544 79.40113831 32.33062744 C79.44574612 35.99978715 79.47391196 39.66878732 79.49829102 43.33813477 C79.50769022 44.59164671 79.51708942 45.84515865 79.52677345 47.13665581 C79.5645798 52.40813204 79.59847723 57.67958457 79.61714458 62.9511652 C79.64390231 70.48780298 79.70130855 78.02271599 79.80290955 85.55872923 C79.88035522 91.5083058 79.90792349 97.45750042 79.9183445 103.40759087 C79.92991288 105.93095913 79.95672302 108.4543066 79.9992733 110.97734261 C80.35187439 133.20750893 80.35187439 133.20750893 75.11474609 139.3046875 C73.44555239 140.66739515 71.7340723 141.97975516 69.98657227 143.24047852 C69.15934158 144.07675278 68.3321109 144.91302704 67.47981262 145.77464294 C61.27872748 151.81267656 56.43165678 153.26895368 47.85568237 153.28579712 C46.48000602 153.2431753 45.10436508 153.19939703 43.72875977 153.15454102 C42.28959378 153.14025601 40.85038452 153.12985859 39.41116333 153.12313843 C35.65866307 153.09471577 31.90935161 153.0114366 28.15802002 152.91674805 C24.32000665 152.83106217 20.48156397 152.80333041 16.64282227 152.76782227 C11.05868892 152.70462319 5.47538899 152.62462339 -0.10766602 152.49682617 C-1.22698517 152.47190094 -2.34630432 152.44697571 -3.49954224 152.42129517 C-6.01342773 152.24047852 -6.01342773 152.24047852 -7.01342773 151.24047852 C-7.11112975 149.81334232 -7.13974468 148.38140422 -7.14041138 146.95092773 C-7.1432312 146.02544128 -7.14605103 145.09995483 -7.1489563 144.14642334 C-7.14591995 142.61130096 -7.14591995 142.61130096 -7.14282227 141.04516602 C-7.14457458 139.97373352 -7.1463269 138.90230103 -7.14813232 137.79840088 C-7.15255327 134.23741054 -7.14961199 130.6764694 -7.14624023 127.11547852 C-7.1469132 124.65307607 -7.14788317 122.1906737 -7.1491394 119.72827148 C-7.15061671 114.55980804 -7.14846078 109.39136184 -7.14379883 104.22290039 C-7.13810153 97.58107124 -7.14138036 90.9392825 -7.14737129 84.29745483 C-7.15097603 79.21044609 -7.14983872 74.12344701 -7.1472435 69.03643799 C-7.14657399 66.58669022 -7.14740349 64.13694159 -7.14972305 61.68719482 C-7.15224815 58.27003642 -7.14841099 54.85294445 -7.14282227 51.43579102 C-7.1448465 50.4123761 -7.14687073 49.38896118 -7.1489563 48.33453369 C-7.14613647 47.40904724 -7.14331665 46.48356079 -7.14041138 45.5300293 C-7.14003435 44.72107208 -7.13965733 43.91211487 -7.13926888 43.0786438 C-7.01342773 41.24047852 -7.01342773 41.24047852 -6.01342773 40.24047852 C-3.80692117 40.1403545 -1.59720387 40.10966672 0.61157227 40.10766602 C1.27366699 40.10670929 1.93576172 40.10575256 2.61791992 40.10476685 C4.02010188 40.10408525 5.42228697 40.1059381 6.82446289 40.11010742 C8.9775294 40.11545605 11.13038729 40.11016182 13.28344727 40.10375977 C14.64282273 40.10442055 16.00219806 40.10570172 17.36157227 40.10766602 C19.22942383 40.10935791 19.22942383 40.10935791 21.13500977 40.11108398 C23.98657227 40.24047852 23.98657227 40.24047852 24.98657227 41.24047852 C25.11152254 43.70397152 25.1725943 46.14084619 25.19189453 48.60595703 C25.20179413 49.37663513 25.21169373 50.14731323 25.22189331 50.94134521 C25.25359927 53.50065998 25.27830147 56.05999335 25.30297852 58.61938477 C25.3235402 60.38916011 25.34453646 62.15893046 25.36595154 63.92869568 C25.42125336 68.59593671 25.47062673 73.26322265 25.51879883 77.93054199 C25.5689548 82.68949398 25.62467161 87.44838042 25.67993164 92.20727539 C25.78761234 101.5516205 25.88903515 110.89602241 25.98657227 120.24047852 C28.4033145 120.2675316 30.81975167 120.28734289 33.23657227 120.30297852 C34.25944336 120.31554687 34.25944336 120.31554687 35.30297852 120.32836914 C40.24363257 120.4105004 40.24363257 120.4105004 44.98657227 119.24047852 C46.23203231 116.74955842 46.11594744 115.10042657 46.11938477 112.31079102 C46.12264771 110.68911011 46.12264771 110.68911011 46.12597656 109.03466797 C46.12122314 107.82383545 46.11646973 106.61300293 46.11157227 105.36547852 C46.10746338 104.09728271 46.10335449 102.82908691 46.09912109 101.52246094 C46.08118653 97.69236986 46.04874795 93.86249085 46.01263428 90.03253174 C45.99420229 88.05789126 45.97694233 86.08323968 45.96051025 84.10858154 C45.90147823 77.11091733 45.82232862 70.11383597 45.72210693 63.11663818 C45.69005832 60.73897304 45.66292573 58.3612366 45.64068604 55.98345947 C45.60747215 52.6065183 45.55521586 49.2303737 45.49829102 45.85375977 C45.49189102 44.82687546 45.48549103 43.79999115 45.47889709 42.74198914 C45.45911301 41.79701065 45.43932892 40.85203217 45.41894531 39.87841797 C45.40229073 38.63847832 45.40229073 38.63847832 45.38529968 37.37348938 C44.88238411 34.68311916 44.22260909 33.80329871 41.98657227 32.24047852 C39.75975671 31.77653514 39.75975671 31.77653514 37.25561523 31.82397461 C36.29807343 31.80740814 35.34053162 31.79084167 34.35397339 31.77377319 C32.80699265 31.76889389 32.80699265 31.76889389 31.22875977 31.76391602 C30.16996613 31.74833649 29.11117249 31.73275696 28.02029419 31.71670532 C24.63406103 31.66910948 21.24803502 31.64139165 17.86157227 31.61547852 C14.46811363 31.57904641 11.07477395 31.53848776 7.681427 31.49282837 C5.56811457 31.46550201 3.45471462 31.44419454 1.34127808 31.42929077 C-0.08557816 31.41389755 -0.08557816 31.41389755 -1.54125977 31.39819336 C-2.80342819 31.38844986 -2.80342819 31.38844986 -4.09109497 31.37850952 C-6.01342773 31.24047852 -6.01342773 31.24047852 -7.01342773 30.24047852 C-7.11346063 28.10694678 -7.14423821 25.9701031 -7.14624023 23.83422852 C-7.1475293 22.53356445 -7.14881836 21.23290039 -7.15014648 19.89282227 C-7.14805176 19.21203613 -7.14595703 18.53125 -7.14379883 17.82983398 C-7.13845014 15.74919337 -7.14374453 13.66876863 -7.15014648 11.58813477 C-7.14885742 10.2874707 -7.14756836 8.98680664 -7.14624023 7.64672852 C-7.1451123 6.44338867 -7.14398437 5.24004883 -7.14282227 4.00024414 C-6.90895938 -0.98765413 -4.44813375 0.0854787 0 0 Z " fill="#FF0000" transform="translate(567.013427734375,208.759521484375)"/>
<path d="M0 0 C1.25535553 -0.02244278 2.51071106 -0.04488556 3.80410767 -0.06800842 C5.18238202 -0.08102851 6.56066915 -0.09275008 7.93896484 -0.10327148 C8.63322948 -0.11017439 9.32749413 -0.11707729 10.04279709 -0.12418938 C13.72189315 -0.16006185 17.40083529 -0.18357622 21.08007812 -0.19726562 C24.86681893 -0.2137614 28.65167466 -0.27209194 32.43778419 -0.34040928 C35.35993593 -0.38538315 38.28164495 -0.39877414 41.20411301 -0.40388298 C42.59874404 -0.41174139 43.99336337 -0.43127965 45.38765335 -0.46310616 C57.63821117 -0.7241382 57.63821117 -0.7241382 62.76098633 3.71020508 C63.87713145 4.89356199 64.96824177 6.10137208 66.02490234 7.33813477 C66.9949219 8.27987703 67.97219832 9.214236 68.95849609 10.13891602 C69.78478516 10.9677832 70.61107422 11.79665039 71.46240234 12.65063477 C72.30673828 13.49239258 73.15107422 14.33415039 74.02099609 15.20141602 C76.85996459 18.22854227 77.15348525 19.83523888 77.20571899 23.87719727 C77.2201001 24.83312271 77.2344812 25.78904816 77.2492981 26.77394104 C77.25984222 27.82637497 77.27038635 28.8788089 77.28125 29.96313477 C77.29585266 31.06902451 77.31045532 32.17491425 77.32550049 33.3143158 C77.45163437 43.53129303 77.52170399 53.74908377 77.57334328 63.96669006 C77.61218106 71.51285903 77.68039334 79.05752671 77.78789103 86.60303688 C77.86983579 92.55738095 77.90207483 98.51140406 77.91773605 104.46630859 C77.93181405 106.99248642 77.9614162 109.51862853 78.00703812 112.04443359 C78.38959645 134.31675184 78.38959645 134.31675184 72.76855469 140.71313477 C70.43148804 142.67016602 70.43148804 142.67016602 68.02490234 144.33813477 C66.41632213 145.68705572 64.8115253 147.04051572 63.21240234 148.40063477 C58.5473678 152.0120003 54.95638525 152.4621353 49.1105957 152.48339844 C47.91933578 152.48977829 46.72807587 152.49615814 45.50071716 152.50273132 C44.21834671 152.50384415 42.93597626 152.50495697 41.61474609 152.50610352 C39.63626427 152.51109612 39.63626427 152.51109612 37.61781311 152.51618958 C34.82959168 152.52216868 32.04140121 152.52403061 29.25317383 152.5234375 C25.67974549 152.52333567 22.1065149 152.53701494 18.53313351 152.55420971 C15.12283449 152.56799212 11.71257263 152.5674179 8.30224609 152.56860352 C7.01785141 152.57578903 5.73345673 152.58297455 4.41014099 152.59037781 C3.22203323 152.58730118 2.03392548 152.58422455 0.80981445 152.58105469 C-0.23735245 152.58247971 -1.28451935 152.58390472 -2.36341858 152.58537292 C-4.97509766 152.33813477 -4.97509766 152.33813477 -7.97509766 150.33813477 C-8.34703445 148.39253902 -8.34703445 148.39253902 -8.34259033 145.96629333 C-8.34815948 145.04784637 -8.35372864 144.12939941 -8.35946655 143.18312073 C-8.35025177 142.17265182 -8.34103699 141.16218292 -8.33154297 140.12109375 C-8.33460953 138.52835632 -8.33460953 138.52835632 -8.33773804 136.90344238 C-8.34075559 133.38019812 -8.3222406 129.85741744 -8.30322266 126.33422852 C-8.30016688 123.89567684 -8.29828938 121.45712342 -8.29754639 119.01856995 C-8.29293731 113.9031 -8.27848724 108.78778696 -8.25634766 103.67236328 C-8.22804989 97.09893516 -8.21713541 90.52563073 -8.21266556 83.95214748 C-8.20851856 78.91574351 -8.19870738 73.87936482 -8.18679047 68.84297371 C-8.18107357 66.41834785 -8.1763196 63.99371952 -8.1725235 61.56908989 C-8.16568607 58.18794303 -8.1520661 54.8068964 -8.13623047 51.42578125 C-8.13511261 50.41328812 -8.13399475 49.40079498 -8.13284302 48.35762024 C-8.1242778 46.98417953 -8.1242778 46.98417953 -8.11553955 45.58299255 C-8.11256489 44.7827085 -8.10959023 43.98242445 -8.10652542 43.15788937 C-7.97509766 41.33813477 -7.97509766 41.33813477 -6.97509766 40.33813477 C-4.7685911 40.23801075 -2.55887379 40.20732297 -0.35009766 40.20532227 C0.31199707 40.20436554 0.9740918 40.20340881 1.65625 40.2024231 C3.05843195 40.2017415 4.46061705 40.20359435 5.86279297 40.20776367 C8.01585948 40.2131123 10.16871737 40.20781807 12.32177734 40.20141602 C13.68115281 40.2020768 15.04052814 40.20335797 16.39990234 40.20532227 C18.26775391 40.20701416 18.26775391 40.20701416 20.17333984 40.20874023 C23.02490234 40.33813477 23.02490234 40.33813477 24.02490234 41.33813477 C24.13386244 43.69471294 24.17911844 46.02306861 24.18261719 48.38061523 C24.18769791 49.11721375 24.19277863 49.85381226 24.19801331 50.61273193 C24.20873925 52.21749545 24.21735065 53.82227414 24.22413254 55.42705917 C24.23588566 57.96521675 24.25532891 60.50320139 24.2772522 63.04129028 C24.33898951 70.2594835 24.39294053 77.47766033 24.42626953 84.69604492 C24.4471853 89.10639661 24.48246521 93.51643567 24.52702713 97.92660904 C24.54121446 99.60990855 24.54991571 101.2932634 24.55308151 102.97661972 C24.55797633 105.33036876 24.58109639 107.68328474 24.60839844 110.03686523 C24.6053923 110.73516449 24.60238617 111.43346375 24.59928894 112.15292358 C24.64845241 114.9989149 24.72151146 116.90317051 26.37515259 119.2739563 C28.90287677 120.9044761 31.0576346 120.66086192 34.02490234 120.58813477 C35.60271484 120.56493164 35.60271484 120.56493164 37.21240234 120.54125977 C40.10472586 120.44878705 40.10472586 120.44878705 43.02490234 119.33813477 C44.22599002 115.73487173 44.16465881 112.45135226 44.15429688 108.70141602 C44.15604919 107.92551117 44.15780151 107.14960632 44.15960693 106.35018921 C44.16401065 103.78364836 44.16109265 101.21717633 44.15771484 98.65063477 C44.15838831 96.86848945 44.15935869 95.08634422 44.16061401 93.30419922 C44.16208898 89.56843186 44.15994287 85.83268841 44.15527344 82.09692383 C44.14957627 77.30499875 44.15285635 72.51312969 44.1588459 67.72120667 C44.16245692 64.04097063 44.16131043 60.36074791 44.15871811 56.68051147 C44.15805034 54.91344191 44.15887204 53.14637114 44.16119766 51.37930298 C44.16373303 48.91112053 44.15987105 46.44302917 44.15429688 43.97485352 C44.15632111 43.2422934 44.15834534 42.50973328 44.16043091 41.75497437 C44.14751044 38.67164328 44.00804785 36.28757129 43.02490234 33.33813477 C37.62085945 32.23533721 32.34047407 32.1371866 26.84912109 32.05688477 C25.88335648 32.03847534 24.91759186 32.02006592 23.92256165 32.00109863 C19.80501036 31.92262505 15.68730845 31.85434155 11.56958008 31.78588867 C8.55850692 31.73434458 5.54758192 31.67706546 2.53662109 31.61938477 C1.59815842 31.60580933 0.65969574 31.59223389 -0.3072052 31.57824707 C-1.16867661 31.56152954 -2.03014801 31.54481201 -2.91772461 31.52758789 C-3.67906204 31.51505981 -4.44039948 31.50253174 -5.22480774 31.48962402 C-6.97509766 31.33813477 -6.97509766 31.33813477 -7.97509766 30.33813477 C-8.22925316 25.69798151 -8.16032563 21.0469217 -8.16259766 16.40063477 C-8.17484375 15.08643555 -8.18708984 13.77223633 -8.19970703 12.41821289 C-8.20260742 10.53972656 -8.20260742 10.53972656 -8.20556641 8.62329102 C-8.20967529 7.46708252 -8.21378418 6.31087402 -8.21801758 5.11962891 C-7.74279478 -0.32179156 -4.69725179 0.07065574 0 0 Z " fill="#FF0000" transform="translate(505.97509765625,38.661865234375)"/>
<path d="M0 0 C1.61502112 -0.02625665 3.23067552 -0.02365739 4.84570312 0.00219727 C5.69998901 -0.00021469 6.5542749 -0.00262665 7.43444824 -0.00511169 C9.24003747 -0.0041325 11.04565644 0.00927848 12.85107422 0.03417969 C15.6172467 0.06848315 18.38022474 0.05484642 21.14648438 0.03540039 C22.90040425 0.04229889 24.65431586 0.05197131 26.40820312 0.06469727 C27.65047668 0.05725746 27.65047668 0.05725746 28.91784668 0.04966736 C34.66377623 0.16770407 34.66377623 0.16770407 36.77832031 2.28326416 C38.39833181 5.10354757 38.96380533 7.53428898 39.578125 10.72998047 C39.82306702 11.97554718 40.06800903 13.22111389 40.32037354 14.50442505 C40.57898056 15.87604741 40.83741852 17.24770166 41.09570312 18.61938477 C41.37449924 20.0564932 41.65428649 21.49340966 41.93499756 22.93014526 C42.53265441 25.99943385 43.12374841 29.06988434 43.70959473 32.14144897 C44.62867031 36.96003953 45.56144782 41.77590712 46.49707031 46.59130859 C47.44819561 51.48907017 48.39871622 56.38693986 49.34442139 61.28575134 C51.33316065 71.58305676 53.3566494 81.8726966 55.42382812 92.15454102 C55.6776123 93.41721298 55.93139648 94.67988495 56.19287109 95.9808197 C57.15148461 100.74404785 58.11200468 105.5068883 59.07397461 110.2694397 C65.78541401 143.51972592 65.78541401 143.51972592 65.12695312 150.63110352 C60.2677338 153.87058307 54.89982488 152.95897878 49.18945312 152.94360352 C47.39991211 152.96777344 47.39991211 152.96777344 45.57421875 152.99243164 C44.42759766 152.99307617 43.28097656 152.9937207 42.09960938 152.99438477 C41.05039307 152.99736572 40.00117676 153.00034668 38.92016602 153.00341797 C35.71590737 152.57631418 34.37554664 151.93307323 32.12695312 149.63110352 C31.36914062 147.66992188 31.36914062 147.66992188 31.00195312 145.47094727 C30.85242188 144.6775293 30.70289063 143.88411133 30.54882812 143.06665039 C30.2669367 141.39748776 29.98568957 139.72821619 29.70507812 138.05883789 C29.55554688 137.26670898 29.40601563 136.47458008 29.25195312 135.65844727 C29.13078125 134.93391357 29.00960937 134.20937988 28.88476562 133.46289062 C28.25996626 131.47790909 28.25996626 131.47790909 26.30688477 130.39379883 C24.08715782 129.61718028 22.46390105 129.38632534 20.12304688 129.40063477 C19.38248047 129.40256836 18.64191406 129.40450195 17.87890625 129.40649414 C17.11513672 129.41874023 16.35136719 129.43098633 15.56445312 129.44360352 C14.79681641 129.44424805 14.02917969 129.44489258 13.23828125 129.44555664 C9.95616632 129.47130994 7.25956275 129.58690031 4.12695312 130.63110352 C3.16978113 134.14324642 2.47574949 137.61718692 1.84179688 141.19750977 C0.80197498 146.34329503 -0.36463448 149.49319888 -4.87304688 152.63110352 C-8.43945312 153.15454102 -8.43945312 153.15454102 -12.43554688 153.00610352 C-13.13429932 152.98539795 -13.83305176 152.96469238 -14.55297852 152.94335938 C-16.6625208 152.87045059 -18.7661114 152.75784024 -20.87304688 152.63110352 C-22.08734375 152.5627832 -23.30164063 152.49446289 -24.55273438 152.42407227 C-32.65312752 151.85102287 -32.65312752 151.85102287 -33.87304688 150.63110352 C-33.85234364 141.31355881 -31.83435881 132.04020999 -30.02661133 122.93701172 C-29.55576654 120.54431121 -29.10982819 118.14772753 -28.6640625 115.75024414 C-28.36413732 114.21934915 -28.06275874 112.68873801 -27.75976562 111.15844727 C-27.63043137 110.4459935 -27.50109711 109.73353973 -27.36784363 108.99949646 C-26.75826819 106.04670323 -26.31759987 104.04988955 -24.08631897 101.94793701 C-21.60886798 100.47392464 -20.2373808 100.23978647 -17.37988281 100.19873047 C-16.49927185 100.17893631 -15.61866089 100.15914215 -14.71136475 100.13874817 C-13.7695636 100.13235825 -12.82776245 100.12596832 -11.85742188 100.11938477 C-10.88645569 100.10143356 -9.9154895 100.08348236 -8.9151001 100.06498718 C-5.81779303 100.01086079 -2.72064027 99.97698068 0.37695312 99.94360352 C2.47853711 99.91043253 4.58010072 99.87594308 6.68164062 99.84008789 C11.82996683 99.75513278 16.97824707 99.68833244 22.12695312 99.63110352 C21.46076489 95.55441217 20.78507266 91.4794218 20.10058594 87.40576172 C19.86913367 86.02012764 19.64026974 84.63405859 19.4140625 83.24755859 C19.08821701 81.2531841 18.75224445 79.26047253 18.41601562 77.26782227 C18.2170166 76.06859131 18.01801758 74.86936035 17.81298828 73.63378906 C17.27785798 70.47240141 17.27785798 70.47240141 15.12695312 67.63110352 C14.99119873 68.31736816 14.85544434 69.00363281 14.71557617 69.71069336 C14.09465474 72.81188451 13.45481689 75.9088713 12.81445312 79.00610352 C12.60111328 80.08633789 12.38777344 81.16657227 12.16796875 82.27954102 C11.95205078 83.31079102 11.73613281 84.34204102 11.51367188 85.40454102 C11.31990967 86.3576416 11.12614746 87.31074219 10.92651367 88.29272461 C10.12695312 90.63110352 10.12695312 90.63110352 7.12695312 92.63110352 C2.4530739 93.07697091 -2.24276058 92.95522508 -6.93554688 92.94360352 C-8.24072266 92.9597168 -9.54589844 92.97583008 -10.890625 92.99243164 C-12.75557617 92.99339844 -12.75557617 92.99339844 -14.65820312 92.99438477 C-16.37342163 92.9988562 -16.37342163 92.9988562 -18.12329102 93.00341797 C-19.03071045 92.8805542 -19.93812988 92.75769043 -20.87304688 92.63110352 C-23.30652851 88.98088106 -22.93592978 88.17912286 -22.19506836 83.98266602 C-21.99315887 82.81638672 -21.79124939 81.65010742 -21.58322144 80.44848633 C-21.34886383 79.18875 -21.11450623 77.92901367 -20.87304688 76.63110352 C-20.52187302 74.71442871 -20.52187302 74.71442871 -20.16360474 72.7590332 C-19.37363571 68.5032893 -18.54954667 64.25442227 -17.72070312 60.00610352 C-17.57182585 59.24095428 -17.42294857 58.47580505 -17.26955986 57.68746948 C-16.48458364 53.65457274 -15.69639137 49.62232033 -14.90551758 45.59057617 C-14.09242624 41.44199848 -13.29095368 37.29126145 -12.49193668 33.13995361 C-11.87127138 29.9267488 -11.24198613 26.7152758 -10.61034966 23.50421143 C-10.31089123 21.97388671 -10.01467946 20.44292281 -9.72184944 18.91131592 C-9.31271527 16.77563866 -8.89137709 14.642711 -8.46704102 12.51000977 C-8.23102676 11.29901611 -7.99501251 10.08802246 -7.75184631 8.84033203 C-5.5800386 0.90925364 -5.5800386 0.90925364 0 0 Z " fill="#FF0000" transform="translate(424.873046875,38.368896484375)"/>
<path d="M0 0 C0.85711578 -0.00807175 1.71423157 -0.01614349 2.59732056 -0.02445984 C4.41479459 -0.0383161 6.23229481 -0.04903133 8.04980469 -0.05688477 C10.83318234 -0.07410504 13.61537472 -0.11797682 16.3984375 -0.16210938 C18.16144957 -0.17223518 19.92447177 -0.18075164 21.6875 -0.1875 C22.93918472 -0.21376213 22.93918472 -0.21376213 24.21615601 -0.24055481 C26.57177734 -0.23168945 26.57177734 -0.23168945 30.4765625 0.23828125 C33.29028064 3.09893777 34.05732598 5.8074538 34.80419922 9.68774414 C35.02274567 10.7949884 35.24129211 11.90223267 35.46646118 13.04302979 C35.69409149 14.25343933 35.9217218 15.46384888 36.15625 16.7109375 C36.53020401 18.62866974 36.53020401 18.62866974 36.91171265 20.58514404 C37.5949392 24.08997028 38.26498985 27.59719856 38.93251038 31.10504532 C39.63510646 34.78648585 40.34879376 38.46577409 41.06152344 42.14526367 C41.95339107 46.75386365 42.8436666 51.36275584 43.72839355 55.97273254 C45.69839827 66.2362121 47.70131638 76.49272459 49.72880936 86.74499702 C50.63061069 91.30896618 51.52786144 95.87383202 52.42507744 100.43870449 C53.14259826 104.0881806 53.86221527 107.73721423 54.58685303 111.38528442 C55.39709102 115.46616223 56.19505852 119.54935393 56.9921875 123.6328125 C57.23013031 124.82187195 57.46807312 126.0109314 57.71322632 127.23602295 C59.18573957 134.84221128 60.37016868 142.47417812 60.4765625 150.23828125 C57.77713906 152.93770469 51.02730495 152.12798765 47.4765625 152.23828125 C41.13445318 152.09420036 34.8046068 151.66853531 28.4765625 151.23828125 C26.17557023 146.2818021 24.75297054 141.66811617 23.7890625 136.30078125 C23.65951172 135.61693359 23.52996094 134.93308594 23.39648438 134.22851562 C23.08266652 132.56644327 22.77857084 130.90253998 22.4765625 129.23828125 C19.20574779 129.20925696 15.9349662 129.19147441 12.6640625 129.17578125 C11.2709082 129.16321289 11.2709082 129.16321289 9.84960938 129.15039062 C8.95693359 129.14716797 8.06425781 129.14394531 7.14453125 129.140625 C6.32235107 129.13538818 5.5001709 129.13015137 4.65307617 129.12475586 C2.29483654 129.15086601 2.29483654 129.15086601 -0.5234375 130.23828125 C-1.33267855 132.84451346 -1.97059577 135.32714478 -2.5234375 137.98828125 C-4.61302608 147.83413933 -4.61302608 147.83413933 -7.5234375 151.23828125 C-12.60584971 152.82895988 -18.28727171 152.42190512 -23.5859375 152.42578125 C-24.47087891 152.43802734 -25.35582031 152.45027344 -26.26757812 152.46289062 C-30.79324946 152.47307593 -34.4183993 152.39748014 -38.5234375 150.23828125 C-38.66415486 144.13287841 -38.26719355 138.60124998 -37.0625 132.625 C-36.91187103 131.8481636 -36.76124207 131.07132721 -36.60604858 130.27095032 C-36.28895413 128.64590004 -35.96775442 127.02164575 -35.64257812 125.39819336 C-35.14659612 122.91656797 -34.66615083 120.43228567 -34.1875 117.94726562 C-33.87591085 116.36049795 -33.56344193 114.77390273 -33.25 113.1875 C-33.10720612 112.44892258 -32.96441223 111.71034515 -32.81729126 110.9493866 C-32.10004993 107.40711428 -31.21897337 104.4190457 -29.5234375 101.23828125 C-28.70324631 101.20402794 -28.70324631 101.20402794 -27.8664856 101.16908264 C-22.18890552 100.93108237 -16.51162283 100.68676009 -10.83447266 100.4387207 C-8.71409999 100.34691913 -6.59365626 100.25674417 -4.47314453 100.16821289 C-1.42981251 100.04087385 1.61321822 99.9077375 4.65625 99.7734375 C6.08443558 99.71555809 6.08443558 99.71555809 7.54147339 99.6565094 C8.42223541 99.61654343 9.30299744 99.57657745 10.21044922 99.53540039 C10.98766327 99.50209122 11.76487732 99.46878204 12.56564331 99.4344635 C14.56093161 99.3434009 14.56093161 99.3434009 16.4765625 98.23828125 C15.78560216 91.34292443 14.7589882 84.55898107 13.5390625 77.73828125 C13.28479492 76.2378125 13.28479492 76.2378125 13.02539062 74.70703125 C12.77112305 73.28390625 12.77112305 73.28390625 12.51171875 71.83203125 C12.28560913 70.54329102 12.28560913 70.54329102 12.05493164 69.22851562 C11.86406982 68.57173828 11.67320801 67.91496094 11.4765625 67.23828125 C10.4865625 66.74328125 10.4865625 66.74328125 9.4765625 66.23828125 C9.29480469 67.59759766 9.29480469 67.59759766 9.109375 68.984375 C6.54115974 87.65332437 6.54115974 87.65332437 4.32275391 90.95605469 C1.53997876 92.88876232 -0.77034237 92.59268886 -4.125 92.56640625 C-6.06632812 92.55867188 -6.06632812 92.55867188 -8.046875 92.55078125 C-8.71944336 92.54046875 -9.39201172 92.53015625 -10.08496094 92.51953125 C-12.14796975 92.48828833 -14.21021523 92.47855117 -16.2734375 92.47265625 C-26.36967115 92.3920476 -26.36967115 92.3920476 -27.5234375 91.23828125 C-27.76121043 86.19082121 -27.17857711 81.62951604 -26.1940918 76.68579102 C-26.05260712 75.96610138 -25.91112244 75.24641174 -25.76535034 74.50491333 C-25.29951134 72.14511221 -24.82394278 69.78740036 -24.34765625 67.4296875 C-24.01814642 65.77741699 -23.6890361 64.12506677 -23.36030579 62.47264099 C-22.67109038 59.0162683 -21.97703966 55.56091152 -21.27954102 52.10620117 C-20.38945806 47.69561657 -19.51146016 43.2827298 -18.63710308 38.86900425 C-17.95994158 35.45779957 -17.27632402 32.04791294 -16.59079933 28.63838005 C-16.26471605 27.01260739 -15.94060471 25.38643784 -15.61856651 23.75985909 C-15.16590079 21.47858973 -14.70453197 19.19924212 -14.2409668 16.92016602 C-13.98115524 15.6266774 -13.72134369 14.33318878 -13.45365906 13.00050354 C-10.2615947 0.09040102 -10.2615947 0.09040102 0 0 Z " fill="#FF0000" transform="translate(230.5234375,38.76171875)"/>
<path d="M0 0 C1.61502112 -0.02625665 3.23067552 -0.02365739 4.84570312 0.00219727 C5.69998901 -0.00021469 6.5542749 -0.00262665 7.43444824 -0.00511169 C9.24003747 -0.0041325 11.04565644 0.00927848 12.85107422 0.03417969 C15.6172467 0.06848315 18.38022474 0.05484642 21.14648438 0.03540039 C22.90040425 0.04229889 24.65431586 0.05197131 26.40820312 0.06469727 C27.65047668 0.05725746 27.65047668 0.05725746 28.91784668 0.04966736 C34.68210159 0.16808052 34.68210159 0.16808052 36.78886414 2.36090088 C38.22143133 4.79139529 38.83592078 6.73078306 39.40942383 9.48779297 C39.7295771 10.99626045 39.7295771 10.99626045 40.05619812 12.53520203 C40.28193008 13.65610733 40.50766205 14.77701263 40.74023438 15.93188477 C40.99122391 17.14056717 41.24221344 18.34924957 41.50080872 19.59455872 C42.39740606 23.93587731 43.26457713 28.28287362 44.12695312 32.63110352 C44.3772591 33.893102 44.3772591 33.893102 44.63262177 35.1805954 C47.36904095 49.00313673 50.04324406 62.83760561 52.70819092 76.67407227 C53.52024001 80.8859689 54.33544513 85.09725206 55.15070629 89.30852795 C55.9471659 93.42398024 56.74215834 97.53971485 57.53667641 101.65554237 C57.9106658 103.59252458 58.28497137 105.52944578 58.65962791 107.46629906 C59.67292751 112.7080891 60.67816396 117.95127742 61.66759872 123.19762802 C61.9734406 124.81785567 62.28113732 126.43773432 62.59070206 128.05725479 C63.02746933 130.35176436 63.45426085 132.64790945 63.87817383 134.94482422 C64.12034134 136.24015579 64.36250885 137.53548737 64.61201477 138.87007141 C65.16388337 142.90083647 65.28630287 146.56982156 65.12695312 150.63110352 C62.45470834 153.3033483 54.76800562 151.86108268 50.91674805 151.87133789 C48.70192998 151.88104881 46.48803772 151.91206142 44.2734375 151.94360352 C42.87175032 151.95013282 41.47005649 151.95538358 40.06835938 151.95922852 C38.78646729 151.96857422 37.5045752 151.97791992 36.18383789 151.98754883 C35.17506592 151.86992187 34.16629395 151.75229492 33.12695312 151.63110352 C31.24398251 148.80664759 30.70400962 147.3971508 30.05664062 144.18188477 C29.89921387 143.41787354 29.74178711 142.6538623 29.57958984 141.86669922 C29.38896973 140.90207764 29.19834961 139.93745605 29.00195312 138.94360352 C28.07382812 134.33391602 28.07382812 134.33391602 27.12695312 129.63110352 C19.53695312 129.63110352 11.94695313 129.63110352 4.12695312 129.63110352 C2.89331609 135.74744147 2.89331609 135.74744147 1.67431641 141.86669922 C1.43817627 143.01271606 1.43817627 143.01271606 1.19726562 144.18188477 C1.04016113 144.96217041 0.88305664 145.74245605 0.72119141 146.54638672 C0.12695312 148.63110352 0.12695312 148.63110352 -1.87304688 151.63110352 C-6.25669819 152.43228028 -10.73637039 152.37747477 -15.18554688 152.50610352 C-17.04083008 152.59504883 -17.04083008 152.59504883 -18.93359375 152.68579102 C-20.12662109 152.72704102 -21.31964844 152.76829102 -22.54882812 152.81079102 C-23.64106689 152.84930176 -24.73330566 152.8878125 -25.85864258 152.92749023 C-29.26143187 152.59291615 -31.10749146 151.58729849 -33.87304688 149.63110352 C-33.23629662 140.96955547 -31.63061599 132.58716929 -29.91674805 124.08789062 C-29.43204386 121.67617373 -28.95981523 119.26222272 -28.48828125 116.84790039 C-28.1810847 115.30803781 -27.87316818 113.76831864 -27.56445312 112.22875977 C-27.35496788 111.15066795 -27.35496788 111.15066795 -27.14125061 110.05079651 C-26.45275661 106.68690724 -25.8049961 104.52902736 -23.87304688 101.63110352 C-21.88619995 101.19441223 -21.88619995 101.19441223 -19.42333984 101.10693359 C-18.50253632 101.06711868 -17.58173279 101.02730377 -16.63302612 100.98628235 C-15.13921921 100.9438868 -15.13921921 100.9438868 -13.61523438 100.90063477 C-12.5970462 100.86048752 -11.57885803 100.82034027 -10.52981567 100.77897644 C-7.2695677 100.65356546 -4.00901728 100.54837076 -0.74804688 100.44360352 C1.45903372 100.36224916 3.66606642 100.27958373 5.87304688 100.19555664 C11.29055096 99.99217488 16.70843947 99.80539715 22.12695312 99.63110352 C21.43497868 95.71639631 20.74115943 91.80202096 20.0456543 87.88793945 C19.80947381 86.55729954 19.57379117 85.22657116 19.33862305 83.89575195 C18.99985622 81.97917683 18.65913042 80.0629483 18.31835938 78.14672852 C18.11412354 76.99462891 17.9098877 75.8425293 17.69946289 74.65551758 C17.07022265 71.10219568 17.07022265 71.10219568 16.12695312 67.63110352 C15.13695312 67.13610352 15.13695312 67.13610352 14.12695312 66.63110352 C13.94519531 67.99041992 13.94519531 67.99041992 13.75976562 69.37719727 C11.1829152 88.10891766 11.1829152 88.10891766 8.94140625 91.34008789 C4.80657297 94.28209521 -1.49573866 93.1411702 -6.37304688 93.13110352 C-7.62214844 93.15946289 -8.87125 93.18782227 -10.15820312 93.21704102 C-11.35316406 93.21961914 -12.548125 93.22219727 -13.77929688 93.22485352 C-14.87564453 93.23194336 -15.97199219 93.2390332 -17.1015625 93.24633789 C-19.87304688 92.63110352 -19.87304688 92.63110352 -21.61380005 90.59362793 C-23.2907936 86.64830582 -22.64378136 83.66696369 -21.79248047 79.61547852 C-21.56628021 78.42674133 -21.56628021 78.42674133 -21.33551025 77.21398926 C-20.83281117 74.59900521 -20.30275525 71.9904202 -19.77148438 69.38110352 C-19.41426758 67.56204038 -19.05846283 65.74269943 -18.70401001 63.9230957 C-17.9572561 60.1110657 -17.19769193 56.30189329 -16.42822266 52.49438477 C-15.44340038 47.61906722 -14.48397982 42.73919377 -13.5333004 37.8571167 C-12.79988743 34.09974121 -12.05634586 30.34442946 -11.30940628 26.58972168 C-10.95224296 24.79128394 -10.59744332 22.99237508 -10.2450676 21.19299316 C-9.74979267 18.67549672 -9.24175119 16.16091639 -8.72998047 13.64672852 C-8.58644135 12.90579956 -8.44290222 12.16487061 -8.29501343 11.40148926 C-6.13681708 0.99997933 -6.13681708 0.99997933 0 0 Z " fill="#FF0000" transform="translate(668.873046875,38.368896484375)"/>
<path d="M0 0 C0.95504425 -0.02251831 1.9100885 -0.04503662 2.89407349 -0.0682373 C7.27874861 -0.13930491 11.66325308 -0.19679862 16.04833984 -0.23535156 C18.35681953 -0.26192306 20.6651813 -0.3028085 22.97314453 -0.35839844 C26.30663913 -0.4377446 29.6378659 -0.47070045 32.97216797 -0.49414062 C33.99641876 -0.52713257 35.02066956 -0.56012451 36.07595825 -0.59411621 C41.57020207 -0.57889088 44.73397806 -0.04387553 48.94873047 3.62573242 C50.1163866 4.80919251 51.26952372 6.00730767 52.40185547 7.22460938 C53.28615234 7.98386719 54.17044922 8.743125 55.08154297 9.52539062 C56.16822266 10.52119141 56.16822266 10.52119141 57.27685547 11.53710938 C58.01677734 12.19324219 58.75669922 12.849375 59.51904297 13.52539062 C64.66245888 20.8990429 63.71715385 30.96307605 63.66259766 39.57666016 C63.65176229 41.61715646 63.66261014 43.65679397 63.67529297 45.69726562 C63.67271484 46.99277344 63.67013672 48.28828125 63.66748047 49.62304688 C63.66522461 50.79528809 63.66296875 51.9675293 63.66064453 53.17529297 C63.41079132 56.11931809 63.03581841 57.79237995 61.40185547 60.22460938 C57.06750997 62.39178212 51.22515022 61.40957299 46.46435547 61.41210938 C44.65547852 61.43047852 44.65547852 61.43047852 42.81005859 61.44921875 C41.07852539 61.45211914 41.07852539 61.45211914 39.31201172 61.45507812 C37.72078491 61.46124146 37.72078491 61.46124146 36.09741211 61.4675293 C33.40185547 61.22460938 33.40185547 61.22460938 30.40185547 59.22460938 C29.96948242 56.61083984 29.96948242 56.61083984 29.89013672 53.34179688 C29.8546875 52.17519531 29.81923828 51.00859375 29.78271484 49.80664062 C29.74887695 47.97166016 29.74887695 47.97166016 29.71435547 46.09960938 C29.68019531 44.86855469 29.64603516 43.6375 29.61083984 42.36914062 C29.5281462 39.32128925 29.4633313 36.27296253 29.40185547 33.22460938 C22.80185547 33.22460938 16.20185547 33.22460938 9.40185547 33.22460938 C9.33413805 44.12502941 9.27907314 55.02531024 9.24641895 65.92589283 C9.23074834 70.98721429 9.2094846 76.04838465 9.17553711 81.10961914 C9.14299344 85.99199094 9.12501297 90.8742172 9.11722374 95.75668907 C9.11167124 97.62146992 9.10082885 99.48624262 9.0846653 101.35096169 C9.06295725 103.95851619 9.05988574 106.5654657 9.0612793 109.1730957 C9.05049347 109.94777191 9.03970764 110.72244812 9.02859497 111.52059937 C9.02891174 115.61882654 9.02891174 115.61882654 10.80432129 119.20654297 C12.81692332 120.48912117 14.03655722 120.57119505 16.41357422 120.51757812 C17.17089844 120.50791016 17.92822266 120.49824219 18.70849609 120.48828125 C19.49417969 120.46314453 20.27986328 120.43800781 21.08935547 120.41210938 C21.88664062 120.39857422 22.68392578 120.38503906 23.50537109 120.37109375 C25.47115514 120.33578026 27.43659129 120.28197384 29.40185547 120.22460938 C29.4216748 119.47775879 29.44149414 118.7309082 29.46191406 117.96142578 C29.55693758 114.59045333 29.66670806 111.22012008 29.77685547 107.84960938 C29.80779297 106.67398438 29.83873047 105.49835938 29.87060547 104.28710938 C29.92861328 102.60488281 29.92861328 102.60488281 29.98779297 100.88867188 C30.01921387 99.85178223 30.05063477 98.81489258 30.08300781 97.74658203 C30.40185547 95.22460938 30.40185547 95.22460938 32.40185547 93.22460938 C35.27514648 92.98168945 35.27514648 92.98168945 38.90576172 92.99414062 C40.20320313 92.99607422 41.50064453 92.99800781 42.83740234 93 C43.51407959 93.00620361 44.19075684 93.01240723 44.88793945 93.01879883 C46.95976018 93.03706885 49.03113444 93.03930842 51.10302734 93.0390625 C61.2617729 93.0845268 61.2617729 93.0845268 62.40185547 94.22460938 C62.71976195 99.79633879 62.75888677 105.37055172 62.80688477 110.95043945 C62.82839059 112.82920801 62.86240481 114.70787841 62.90942383 116.58618164 C62.9767667 119.30074634 63.00394546 122.01323087 63.02294922 124.72851562 C63.05077988 125.55903946 63.07861053 126.38956329 63.10728455 127.24525452 C63.08044153 134.95611828 59.46022149 139.09987737 54.24169922 144.43164062 C53.61392578 144.96144531 52.98615234 145.49125 52.33935547 146.03710938 C51.70900391 146.57980469 51.07865234 147.1225 50.42919922 147.68164062 C45.23207793 151.63706049 41.51182967 152.65722533 34.98779297 152.55273438 C34.17750641 152.55086121 33.36721985 152.54898804 32.53237915 152.54705811 C30.81939575 152.54035045 29.10642733 152.52646149 27.39355469 152.50585938 C24.80632842 152.47496136 22.21971606 152.46490631 19.63232422 152.45898438 C-5.54773793 152.34625393 -5.54773793 152.34625393 -11.68017578 146.20117188 C-12.31310547 145.54890625 -12.94603516 144.89664063 -13.59814453 144.22460938 C-15.04699019 142.9636247 -16.5051811 141.71328588 -17.97314453 140.47460938 C-23.39655759 135.85066358 -23.39655759 135.85066358 -23.86379337 132.08181477 C-23.87104152 131.24692115 -23.87828966 130.41202753 -23.88575745 129.55183411 C-23.89862289 128.59164368 -23.91148834 127.63145325 -23.92474365 126.64216614 C-23.92855042 125.59018539 -23.93235718 124.53820465 -23.9362793 123.4543457 C-23.9478154 122.34509735 -23.9593515 121.235849 -23.97123718 120.09298706 C-24.00561623 116.41419079 -24.02406185 112.73556249 -24.03955078 109.05664062 C-24.04645369 107.80063238 -24.05335659 106.54462414 -24.06046867 105.25055504 C-24.09263605 99.28755749 -24.11708711 93.32461271 -24.12928253 87.36154538 C-24.14352036 80.49012678 -24.187334 73.61973829 -24.25678402 66.74866086 C-24.31493875 60.78836832 -24.33438086 54.82832819 -24.34016228 48.86774254 C-24.34805618 46.33719206 -24.3677022 43.80664961 -24.39938545 41.27628517 C-24.44084724 37.73065964 -24.43799119 34.18763082 -24.42456055 30.6418457 C-24.44658539 29.59998611 -24.46861023 28.55812653 -24.49130249 27.48469543 C-24.40667886 20.89569835 -23.07418164 17.52693191 -18.37385464 12.85970592 C-17.49487813 12.05033313 -17.49487813 12.05033313 -16.59814453 11.22460938 C-15.66060549 10.25052674 -14.72662082 9.27300181 -13.79736328 8.29101562 C-12.5540625 7.05158203 -12.5540625 7.05158203 -11.28564453 5.78710938 C-10.44388672 4.94277344 -9.60212891 4.0984375 -8.73486328 3.22851562 C-5.70101732 0.3832451 -4.05342383 0.09096069 0 0 Z " fill="#FF0000" transform="translate(321.59814453125,38.775390625)"/>
<path d="M0 0 C2.0699881 -0.00971028 4.13898526 -0.04072275 6.20874023 -0.07226562 C7.50618164 -0.07742187 8.80362305 -0.08257812 10.14038086 -0.08789062 C11.9375354 -0.10190918 11.9375354 -0.10190918 13.77099609 -0.11621094 C14.71918213 0.00141602 15.66736816 0.11904297 16.64428711 0.24023438 C19.12473026 3.96089909 19.08809884 7.10563911 19.26928711 11.42773438 C19.32729492 12.55211914 19.32729492 12.55211914 19.38647461 13.69921875 C19.48056926 15.54582637 19.5635103 17.39299627 19.64428711 19.24023438 C20.66901123 19.26529053 21.69373535 19.29034668 22.74951172 19.31616211 C26.53838387 19.41007921 30.32706592 19.51033755 34.11572266 19.61254883 C35.75793014 19.65595734 37.4001845 19.69762795 39.04248047 19.73754883 C41.39817456 19.79510877 43.75363139 19.85884329 46.10913086 19.92382812 C46.84767807 19.94054062 47.58622528 19.95725311 48.34715271 19.97447205 C53.5304154 20.12636267 53.5304154 20.12636267 54.64428711 21.24023438 C54.92620761 25.69201542 54.87612156 30.15559246 54.89428711 34.61523438 C54.91491211 35.87335938 54.93553711 37.13148438 54.95678711 38.42773438 C54.96452148 40.23371094 54.96452148 40.23371094 54.97241211 42.07617188 C54.98175781 43.18524902 54.99110352 44.29432617 55.00073242 45.43701172 C54.64428711 48.24023438 54.64428711 48.24023438 53.57958984 50.09350586 C50.63800781 51.83648691 47.67858973 51.72089144 44.35131836 51.75195312 C43.64528976 51.76990433 42.93926117 51.78785553 42.21183777 51.80635071 C39.9602147 51.86046616 37.70880368 51.8943516 35.45678711 51.92773438 C33.9287628 51.96090656 32.40076648 51.99539614 30.87280273 52.03125 C27.13011722 52.11619262 23.3874947 52.18299685 19.64428711 52.24023438 C19.61536326 56.36521975 19.59751444 60.49017923 19.58178711 64.61523438 C19.56921875 66.37867188 19.56921875 66.37867188 19.55639648 68.17773438 C19.55317383 69.29921875 19.54995117 70.42070312 19.54663086 71.57617188 C19.54139404 72.61306152 19.53615723 73.64995117 19.53076172 74.71826172 C19.47287896 77.23620117 19.47287896 77.23620117 20.64428711 79.24023438 C24.17919547 80.41853716 27.31018275 80.3098566 30.98022461 80.23242188 C32.45157184 80.21490214 33.92292646 80.19799419 35.39428711 80.18164062 C37.70732139 80.15071508 40.01998463 80.11522039 42.33276367 80.06884766 C44.5694636 80.02636659 46.80573029 80.0030282 49.04272461 79.98242188 C49.72934174 79.96380096 50.41595886 79.94518005 51.12338257 79.92599487 C55.44344399 79.90305886 58.39203232 80.29250505 61.64428711 83.24023438 C62.24365234 86.02758789 62.24365234 86.02758789 62.20288086 89.36914062 C62.19579102 90.56861328 62.18870117 91.76808594 62.18139648 93.00390625 C62.13208984 94.88432617 62.13208984 94.88432617 62.08178711 96.80273438 C62.07308594 98.68895508 62.07308594 98.68895508 62.06420898 100.61328125 C61.9387042 109.94581729 61.9387042 109.94581729 59.64428711 112.24023438 C56.67037964 112.48074341 56.67037964 112.48074341 52.80786133 112.46728516 C52.10531219 112.46757721 51.40276306 112.46786926 50.67892456 112.46817017 C48.35214979 112.46677461 46.02569357 112.4512031 43.69897461 112.43554688 C42.08757706 112.43181754 40.47617724 112.42897019 38.86477661 112.42697144 C34.61995197 112.41932869 30.37526381 112.39967477 26.13049316 112.37756348 C21.80047451 112.35711881 17.47043385 112.34797268 13.14038086 112.33789062 C4.64162025 112.31642942 -3.85702935 112.28228582 -12.35571289 112.24023438 C-14.26357666 109.01421501 -14.59706173 106.66475352 -14.56640625 102.93847656 C-14.56226212 101.85375061 -14.55811798 100.76902466 -14.55384827 99.65142822 C-14.53873703 98.458703 -14.52362579 97.26597778 -14.50805664 96.03710938 C-14.49975327 94.77106873 -14.49144989 93.50502808 -14.4828949 92.20062256 C-14.45875503 88.64725491 -14.42099931 85.09414068 -14.38069916 81.54092407 C-14.34632019 78.37537214 -14.31932503 75.20976997 -14.29191017 72.04415131 C-14.20960556 62.62323542 -14.10177777 53.20275117 -13.98339844 43.78222656 C-13.92726334 39.29807163 -13.87750121 34.81386724 -13.8289957 30.32962418 C-13.79024739 26.84506926 -13.74713819 23.3605785 -13.70277214 19.876091 C-13.68241577 18.21903134 -13.66369185 16.56195077 -13.64663887 14.90485382 C-13.62272186 12.62105365 -13.59268351 10.33741516 -13.56103516 8.05371094 C-13.54549088 6.75773987 -13.52994659 5.4617688 -13.51393127 4.12652588 C-13.15515712 -2.41839499 -5.17282305 0.01473564 0 0 Z " fill="#FF0000" transform="translate(489.355712890625,248.759765625)"/>
<path d="M0 0 C1.20446777 0.01047363 2.40893555 0.02094727 3.64990234 0.03173828 C5.60283203 0.04140625 5.60283203 0.04140625 7.59521484 0.05126953 C8.9754258 0.06798149 10.35563413 0.08491139 11.73583984 0.10205078 C13.12385436 0.11208072 14.51187574 0.12120655 15.89990234 0.12939453 C19.3037201 0.15303215 22.70719491 0.18598211 26.11083984 0.22705078 C27.88383336 4.05494579 28.36642879 7.06955725 28.38499451 11.27493286 C28.39496964 12.48910889 28.40494476 13.70328491 28.41522217 14.95425415 C28.41611784 16.29144274 28.41678148 17.6286315 28.41723633 18.96582031 C28.4248614 20.38039587 28.4332895 21.7949673 28.44245911 23.20953369 C28.46436723 27.04403555 28.47319715 30.87845771 28.47828555 34.71301508 C28.48193121 37.10829645 28.48817212 39.50355699 28.49528694 41.89883041 C28.51976134 50.25352648 28.53283055 58.60816055 28.53637695 66.96289062 C28.54001843 74.75487279 28.56996234 82.54646258 28.61178154 90.33832467 C28.6464291 97.02802737 28.66192437 103.71759956 28.66262299 110.40739143 C28.66341722 114.40325002 28.67222331 118.39870805 28.70062065 122.39447403 C28.72670958 126.14900714 28.72905898 129.90280476 28.71296501 133.65738678 C28.71114356 135.03649621 28.71790393 136.41564709 28.73378372 137.79466629 C28.75410993 139.67404827 28.74075441 141.55370543 28.72557068 143.43313599 C28.72758201 144.48578203 28.72959333 145.53842808 28.73166561 146.62297249 C28.11083984 149.22705078 28.11083984 149.22705078 25.73623753 151.06866264 C22.7926376 152.36744921 20.87715713 152.56592227 17.67333984 152.47705078 C16.63564453 152.44869141 15.59794922 152.42033203 14.52880859 152.39111328 C12.83691406 152.30990234 12.83691406 152.30990234 11.11083984 152.22705078 C9.84884766 152.17291016 8.58685547 152.11876953 7.28662109 152.06298828 C-2.6020274 151.51418353 -2.6020274 151.51418353 -4.88916016 149.22705078 C-5.14084244 146.69078827 -5.14084244 146.69078827 -5.14312744 143.41931152 C-5.14876709 142.18257187 -5.15440674 140.94583221 -5.16021729 139.6716156 C-5.15632833 138.29360904 -5.15223197 136.91560305 -5.14794922 135.53759766 C-5.15065805 134.09228845 -5.15421837 132.64698062 -5.15856934 131.20167542 C-5.1677085 127.26993251 -5.16414283 123.33829425 -5.15781116 119.40654945 C-5.15275905 115.29817033 -5.15744041 111.18980036 -5.1605835 107.0814209 C-5.16422545 100.18121731 -5.15941805 93.28105648 -5.14990234 86.38085938 C-5.13901734 78.39535517 -5.14254276 70.40995308 -5.15355515 62.42445135 C-5.16262152 55.57686916 -5.1639165 48.72931776 -5.15867782 41.88173151 C-5.15555452 37.78819765 -5.15515858 33.69471183 -5.16175079 29.60118103 C-5.1675142 25.75330242 -5.16354594 21.90555587 -5.15196228 18.05769157 C-5.14931028 16.64270688 -5.15008994 15.22771113 -5.15448761 13.81273079 C-5.15992302 11.88675449 -5.15191002 9.96075399 -5.14312744 8.03479004 C-5.14237339 6.95520271 -5.14161934 5.87561539 -5.14084244 4.76331329 C-4.7652379 0.97825659 -3.73964651 0.29388806 0 0 Z " fill="#FF0000" transform="translate(599.88916015625,38.77294921875)"/>
<path d="M0 0 C9.35305521 -0.06941831 18.70602216 -0.12276947 28.05927849 -0.15543652 C32.4020788 -0.17111269 36.74470326 -0.19238625 41.08740234 -0.22631836 C45.27599956 -0.25884268 49.46442731 -0.2768383 53.65314102 -0.28463173 C55.25359898 -0.29018775 56.85404736 -0.30103695 58.45443344 -0.31719017 C60.69101982 -0.33887306 62.92690017 -0.34197087 65.16357422 -0.34057617 C66.43820526 -0.34723801 67.7128363 -0.35389984 69.02609253 -0.36076355 C70.49817673 -0.18218559 70.49817673 -0.18218559 72 0 C75.18133234 4.77199852 74.32816905 9.89047832 74.3125 15.5 C74.32861328 16.65371094 74.34472656 17.80742187 74.36132812 18.99609375 C74.36197266 20.10082031 74.36261719 21.20554688 74.36328125 22.34375 C74.36626221 23.35630859 74.36924316 24.36886719 74.37231445 25.41210938 C74 28 74 28 72.90437317 29.63946533 C70.03202452 31.69154734 67.65713114 31.36663809 64.15771484 31.35644531 C63.46637955 31.35848969 62.77504425 31.36053406 62.0627594 31.36264038 C59.7785494 31.36564769 57.49506164 31.34717655 55.2109375 31.328125 C53.6257851 31.3250677 52.04063002 31.32319136 50.45547485 31.32244873 C47.13492541 31.31784631 43.81461857 31.30342072 40.49414062 31.28125 C36.22887396 31.25292155 31.96379808 31.24203391 27.69844627 31.2375679 C24.426606 31.23342036 21.15480463 31.22360923 17.88298416 31.21169281 C16.30964089 31.2059798 14.73629385 31.20122453 13.16294479 31.19742584 C10.96972759 31.19058443 8.77666448 31.17696356 6.58349609 31.16113281 C5.33345795 31.15430481 4.0834198 31.14747681 2.79550171 31.14044189 C0 31 0 31 -1 30 C-1.41423122 25.7420785 -1.51727527 21.46127555 -1.6875 17.1875 C-1.74744141 15.98544922 -1.80738281 14.78339844 -1.86914062 13.54492188 C-1.91619141 12.38927734 -1.96324219 11.23363281 -2.01171875 10.04296875 C-2.05772217 8.98102295 -2.10372559 7.91907715 -2.15112305 6.82495117 C-1.99585531 3.92252309 -1.36098145 2.50533211 0 0 Z " fill="#FF0000" transform="translate(477,209)"/>
</svg>
